<?xml version="1.0" standalone="no"?>
<!DOCTYPE svg PUBLIC "-//W3C//DTD SVG 20010904//EN"
 "http://www.w3.org/TR/2001/REC-SVG-20010904/DTD/svg10.dtd">
<svg version="1.0" xmlns="http://www.w3.org/2000/svg"
 width="416.000000pt" height="416.000000pt" viewBox="0 0 416.000000 416.000000"
 preserveAspectRatio="xMidYMid meet">
<metadata>
Created by potrace 1.14, written by Peter Selinger 2001-2017
</metadata>
<g transform="translate(0.000000,416.000000) scale(0.100000,-0.100000)"
fill="#000000" stroke="none">
<path d="M2187 4114 c-1 -2 -40 -4 -87 -5 -79 -2 -159 -9 -255 -24 -72 -11
-81 -13 -141 -25 -32 -7 -66 -14 -74 -15 -8 -2 -16 -4 -17 -5 -3 -3 -7 -4 -48
-14 -16 -4 -52 -15 -80 -24 -27 -9 -52 -17 -55 -17 -3 -1 -13 -5 -22 -9 -9 -4
-22 -8 -30 -10 -7 -1 -20 -6 -28 -11 -8 -5 -19 -10 -25 -11 -5 -1 -37 -14 -70
-29 -33 -16 -66 -29 -74 -31 -8 -1 -17 -6 -20 -11 -3 -5 -25 -17 -48 -27 -24
-11 -43 -23 -43 -28 0 -5 -4 -6 -10 -3 -5 3 -10 1 -10 -4 0 -6 -5 -11 -12 -11
-6 0 -25 -10 -42 -23 -17 -12 -43 -29 -58 -36 -16 -8 -28 -18 -28 -23 0 -4 -6
-8 -14 -8 -8 0 -28 -13 -45 -29 -17 -16 -31 -27 -31 -25 0 2 -8 -3 -17 -11
-10 -9 -38 -32 -62 -53 -24 -20 -54 -47 -66 -59 -13 -12 -26 -19 -29 -16 -3 4
-6 -1 -6 -10 0 -10 -7 -17 -15 -17 -8 0 -15 -5 -15 -11 0 -6 -19 -30 -42 -53
-51 -50 -93 -100 -89 -104 1 -2 -7 -12 -18 -21 -12 -10 -21 -21 -21 -25 0 -3
-7 -14 -15 -23 -40 -46 -69 -86 -55 -79 10 6 9 3 -3 -10 -24 -26 -68 -94 -60
-94 3 0 -1 -8 -10 -18 -10 -10 -14 -22 -10 -25 3 -4 0 -7 -7 -7 -7 0 -11 -3
-7 -6 3 -4 -1 -13 -9 -21 -8 -8 -12 -19 -9 -24 4 -5 1 -9 -5 -9 -6 0 -8 -4 -5
-10 3 -5 1 -10 -5 -10 -6 0 -8 -4 -5 -10 3 -5 1 -10 -4 -10 -6 0 -10 -3 -9 -7
2 -5 -6 -28 -16 -53 -11 -25 -21 -54 -23 -65 -2 -10 -9 -23 -16 -27 -6 -4 -9
-8 -5 -8 4 0 0 -21 -8 -47 -8 -27 -16 -57 -18 -68 -2 -11 -6 -29 -9 -40 -6
-21 -13 -52 -24 -120 -4 -22 -6 -123 -6 -225 1 -168 5 -225 19 -300 2 -14 7
-41 10 -60 3 -19 14 -69 25 -110 11 -41 21 -83 24 -92 2 -9 9 -26 15 -37 6
-12 8 -21 4 -21 -3 0 -1 -7 6 -15 7 -8 9 -15 5 -15 -4 0 -2 -7 5 -15 7 -8 9
-15 4 -15 -4 0 -3 -5 4 -12 7 -7 12 -17 12 -24 0 -7 14 -43 32 -81 17 -37 30
-72 29 -77 -1 -5 2 -12 6 -15 4 -3 23 -35 42 -71 18 -36 41 -74 50 -84 13 -16
13 -18 1 -11 -8 4 -3 -5 13 -22 15 -16 27 -33 27 -39 0 -5 18 -33 40 -62 22
-29 40 -56 40 -60 0 -7 38 -54 80 -100 11 -12 18 -22 15 -22 -4 0 6 -14 22
-30 15 -17 38 -41 50 -54 12 -13 19 -27 16 -30 -4 -3 1 -6 10 -6 9 0 19 -5 23
-12 5 -7 3 -8 -7 -3 -32 20 236 -234 296 -280 14 -11 40 -32 58 -48 17 -15 40
-30 49 -33 10 -3 18 -10 18 -15 0 -5 4 -9 10 -9 5 0 19 -9 30 -20 11 -11 27
-20 35 -20 8 0 15 -4 15 -10 0 -5 16 -16 35 -24 19 -8 35 -20 35 -26 0 -6 3
-9 8 -7 4 2 21 -4 37 -14 17 -11 38 -22 48 -25 9 -4 17 -11 17 -16 0 -5 4 -7
9 -3 5 3 16 -1 24 -9 8 -8 17 -12 21 -9 3 4 6 1 6 -5 0 -6 7 -9 15 -6 8 4 15
1 15 -5 0 -6 8 -11 17 -11 9 0 25 -8 36 -17 11 -10 17 -13 14 -6 -5 7 4 6 23
-4 17 -8 36 -16 43 -17 7 -1 17 -5 23 -8 6 -4 22 -9 37 -12 15 -2 30 -7 34 -9
7 -5 58 -15 108 -22 11 -1 20 -4 20 -5 0 -1 14 -3 30 -4 17 -1 35 -4 40 -7 13
-8 302 -4 340 5 51 11 134 27 140 27 2 0 25 8 50 19 25 11 45 17 45 13 0 -3 7
0 15 7 8 7 15 10 15 6 0 -4 11 1 25 10 14 9 25 13 25 10 0 -4 10 -1 23 6 12 7
25 11 30 10 4 -1 7 3 7 8 0 5 3 9 8 8 4 -1 27 7 52 17 25 11 47 18 49 16 2 -1
7 2 11 9 4 6 14 12 22 14 9 1 23 8 32 15 9 7 16 10 16 6 0 -4 7 -1 16 6 9 7
23 14 31 15 8 2 23 10 32 18 10 9 21 13 24 9 4 -3 7 -1 7 6 0 7 5 9 10 6 6 -3
10 -1 10 5 0 6 5 8 10 5 6 -3 10 -2 10 4 0 5 10 13 23 17 12 4 29 15 38 25 9
11 21 19 26 19 5 0 24 16 41 36 18 20 32 33 32 29 0 -3 11 6 25 21 14 15 25
24 25 20 0 -3 9 3 20 14 11 11 25 20 31 20 5 0 7 4 4 10 -3 5 6 12 20 16 14 3
29 12 33 19 8 14 170 135 181 135 4 0 12 10 18 23 31 68 -99 51 -256 -34 -30
-16 -63 -29 -73 -29 -10 0 -18 -4 -18 -8 0 -5 -24 -19 -52 -32 -29 -13 -90
-40 -135 -62 -46 -21 -87 -38 -93 -38 -5 0 -10 -5 -10 -11 0 -5 -4 -8 -9 -4
-6 3 -26 -4 -45 -15 -20 -11 -39 -20 -44 -20 -4 -1 -36 -10 -71 -20 -35 -11
-78 -23 -95 -25 -17 -3 -38 -8 -46 -10 -60 -17 -181 -28 -305 -28 -117 1 -142
3 -196 18 -27 7 -54 49 -43 67 10 16 84 46 129 52 23 4 52 8 65 11 24 5 88 15
125 20 26 4 73 13 105 21 14 3 34 7 45 8 11 2 20 4 20 6 0 1 16 4 35 7 19 2
60 17 90 31 52 26 55 29 54 62 -2 35 -1 36 32 32 19 -2 34 0 34 5 0 5 24 8 53
8 28 0 61 5 72 11 11 6 31 8 45 4 24 -7 23 -8 -16 -24 -25 -10 -69 -46 -107
-87 -37 -38 -64 -69 -61 -69 2 0 -11 -15 -31 -32 -19 -18 -35 -36 -35 -41 0
-7 46 32 107 90 13 13 26 23 30 23 12 0 61 48 55 55 -4 4 -2 5 4 3 22 -6 103
62 120 102 13 30 24 40 40 40 13 0 25 4 28 9 3 4 20 11 37 15 25 5 35 2 46
-14 20 -29 38 -25 61 13 18 31 23 34 63 31 26 -1 48 -9 55 -19 14 -19 74 -65
85 -65 4 0 9 15 11 33 3 31 4 32 53 33 50 1 84 -9 97 -30 4 -6 7 -2 8 9 0 11
0 34 1 50 0 17 -2 41 -5 55 -7 31 -89 106 -133 122 -18 7 -33 15 -33 19 0 4
-13 12 -30 19 -35 15 -37 21 -10 38 27 17 25 32 -4 32 -13 0 -26 6 -28 13 -3
6 -14 13 -26 13 -65 4 -61 -3 -42 66 9 34 21 63 27 65 6 2 17 -13 26 -34 15
-37 97 -137 97 -119 0 6 7 1 15 -10 15 -20 16 -20 18 29 2 33 -17 77 -43 102
-33 32 -38 45 -15 45 8 0 15 4 15 9 0 5 19 2 42 -6 49 -17 108 -24 108 -14 0
13 -72 91 -79 86 -5 -2 -23 7 -41 20 -18 13 -38 26 -44 29 -7 3 -4 9 7 16 20
13 23 40 3 40 -8 0 -17 15 -20 34 -4 18 -20 46 -36 62 -16 16 -30 32 -30 35 0
13 41 17 73 9 56 -15 87 -19 87 -10 0 19 -51 66 -97 89 -26 14 -50 26 -52 28
-2 1 7 11 20 22 l24 19 -27 7 c-16 4 -28 12 -28 17 0 6 -9 8 -19 5 -11 -3 -28
3 -40 14 -11 11 -27 19 -36 19 -9 0 -18 7 -22 16 -7 20 11 39 29 28 13 -9 26
-12 66 -18 48 -7 13 45 -61 88 -47 27 -48 28 -31 47 15 16 15 19 2 19 -9 0
-21 7 -28 15 -7 8 -16 12 -22 9 -5 -3 -21 2 -36 12 -15 10 -32 18 -38 19 -6 0
-24 12 -40 28 -16 15 -32 27 -37 27 -4 0 -17 9 -29 19 -11 11 -25 18 -31 14
-5 -3 -1 6 8 21 17 25 17 26 -4 26 -11 0 -21 5 -21 11 0 6 -7 9 -15 5 -8 -3
-20 0 -27 7 -28 27 -67 38 -88 25 -11 -7 -20 -16 -20 -20 0 -15 -65 -4 -102
17 -34 19 -37 24 -23 35 13 11 12 14 -11 26 -14 8 -34 14 -44 14 -10 0 -20 4
-22 10 -6 19 -64 23 -81 5 -9 -9 -21 -14 -27 -10 -5 3 -21 -8 -36 -25 -18 -20
-30 -26 -35 -19 -12 21 -3 106 13 123 22 22 28 20 28 -8 0 -28 25 -57 43 -50
8 3 12 35 13 102 0 107 4 142 16 142 4 0 7 3 6 8 -1 4 3 16 9 27 6 11 11 23
12 28 0 4 8 24 16 44 20 48 16 79 -8 75 -16 -3 -18 1 -11 30 10 44 12 160 3
173 -4 6 -9 19 -11 30 -4 23 -22 45 -37 45 -6 0 -10 6 -8 12 1 7 -8 14 -20 16
-13 2 -23 8 -23 13 0 5 -5 9 -11 9 -17 0 -59 52 -52 63 3 6 1 7 -6 3 -6 -4
-14 0 -18 11 -3 10 -19 30 -35 44 -28 26 -37 49 -18 49 6 0 10 5 10 11 0 5 -4
8 -9 4 -6 -3 -10 3 -10 12 1 55 -9 152 -16 163 -5 7 -9 35 -11 63 -1 30 -9 57
-21 70 -10 11 -12 17 -4 12 10 -6 12 -4 5 6 -5 8 -9 31 -10 51 0 20 -6 43 -12
50 -6 8 -12 36 -15 63 l-3 50 -2 -58 c-1 -36 -6 -56 -12 -52 -6 4 -11 -8 -11
-27 -1 -18 -2 -46 -3 -61 0 -15 -5 -31 -11 -35 -11 -8 -14 -24 -17 -87 -1 -22
-6 -43 -12 -47 -5 -3 -10 -45 -10 -92 -1 -71 -4 -85 -15 -81 -10 4 -9 -1 4
-15 18 -20 18 -21 -3 -36 -35 -24 -53 -45 -47 -55 4 -5 -1 -9 -9 -9 -9 0 -16
-6 -16 -14 0 -8 -4 -16 -9 -18 -5 -1 -11 -10 -13 -18 -2 -8 -19 -22 -38 -31
-48 -22 -86 -63 -95 -102 -11 -47 -8 -176 4 -191 13 -15 4 -26 -21 -26 -12 0
-18 -7 -18 -24 0 -14 5 -28 10 -31 6 -3 10 -17 10 -31 0 -13 5 -24 11 -24 5 0
7 -4 4 -10 -3 -5 -2 -10 3 -10 5 0 16 -21 23 -47 18 -63 16 -50 18 -157 1 -77
4 -94 16 -92 24 4 32 19 34 69 1 27 19 20 36 -13 22 -43 17 -127 -9 -151 -29
-27 -39 -23 -61 24 -14 29 -26 42 -41 42 -12 1 -29 8 -38 18 -22 22 -33 21
-79 -3 -20 -11 -39 -20 -42 -21 -44 -8 -53 -17 -35 -35 13 -13 -66 -64 -101
-64 -15 0 -29 7 -33 16 -7 19 -63 17 -88 -4 -9 -7 -22 -15 -30 -17 -55 -13
-71 -26 -48 -40 17 -10 11 -20 -21 -34 -17 -8 -46 -26 -63 -41 -17 -15 -41
-30 -54 -34 -12 -4 -20 -12 -17 -17 4 -5 -5 -9 -18 -9 -13 0 -38 -7 -55 -16
-28 -14 -30 -17 -17 -30 8 -9 15 -17 15 -19 0 -2 -18 -12 -41 -24 -40 -21 -62
-39 -89 -75 -14 -19 -13 -19 40 -12 30 4 57 11 60 16 3 4 14 2 25 -6 19 -14
19 -15 -10 -38 -17 -13 -34 -22 -38 -19 -5 3 -16 -2 -26 -11 -10 -9 -28 -19
-41 -21 -12 -2 -28 -9 -36 -16 -8 -6 -14 -8 -14 -3 0 4 -5 3 -12 -4 -8 -8 -8
-15 2 -27 10 -12 8 -18 -11 -35 -13 -10 -29 -19 -36 -20 -15 0 -83 -67 -83
-81 0 -12 51 -7 94 10 22 9 31 9 36 1 4 -7 10 -11 14 -11 18 3 18 -1 -2 -20
-13 -11 -34 -44 -48 -72 l-25 -52 21 -17 c20 -16 19 -16 -16 -37 -19 -12 -38
-21 -42 -21 -15 0 -80 -66 -86 -86 -6 -21 -4 -21 39 -13 25 5 54 13 65 19 11
6 26 7 33 3 6 -4 15 -8 20 -9 4 -1 10 -2 14 -3 4 0 -7 -16 -23 -34 -17 -17
-36 -45 -42 -60 -14 -32 -16 -87 -4 -87 23 0 92 76 116 126 28 59 49 63 54 9
1 -14 7 -35 13 -46 9 -19 12 -19 27 -6 42 38 132 28 132 -14 0 -16 3 -18 19
-9 26 13 43 6 76 -36 15 -18 32 -34 37 -34 9 0 38 -25 38 -33 0 -2 -6 -4 -12
-4 -54 -3 -201 -13 -238 -17 -25 -3 -72 -8 -105 -11 -33 -4 -62 -8 -64 -10 -2
-3 10 -17 27 -32 85 -77 101 -91 106 -86 3 3 8 -2 12 -11 3 -9 10 -14 14 -11
5 3 11 1 15 -5 3 -5 15 -10 26 -10 10 0 19 -5 19 -11 0 -6 6 -9 14 -6 8 3 17
3 20 0 3 -3 52 -7 108 -8 119 -3 166 -9 263 -31 39 -9 79 -18 90 -20 11 -2 31
-6 45 -9 83 -19 152 -24 405 -28 110 -2 208 0 218 5 13 7 23 2 41 -19 20 -23
26 -25 39 -15 8 7 27 10 41 7 14 -3 37 -7 51 -10 14 -3 25 -10 25 -16 0 -6 -6
-9 -13 -6 -8 3 -35 1 -61 -4 -189 -35 -605 -32 -766 6 -14 3 -34 8 -45 9 -11
2 -27 6 -35 9 -8 3 -31 8 -50 11 -39 6 -76 13 -117 22 -16 3 -80 7 -143 8 -72
2 -125 8 -140 16 -14 7 -26 13 -27 12 -2 -1 -5 -1 -8 -1 -3 1 -8 2 -12 3 -38
9 -156 89 -146 99 3 4 0 7 -8 7 -8 0 -52 37 -99 82 -47 45 -78 78 -70 74 8 -5
-3 8 -25 29 -22 21 -39 42 -37 46 1 5 -2 9 -6 9 -5 0 -24 21 -42 48 -19 26
-38 49 -42 50 -4 2 -8 10 -8 18 0 8 -4 14 -10 14 -5 0 -10 6 -10 13 0 7 -9 23
-20 35 -12 12 -18 22 -15 22 4 0 -1 7 -9 16 -9 8 -14 20 -11 25 4 5 2 9 -3 9
-7 0 -29 36 -37 60 -1 3 -9 22 -19 42 -9 21 -16 41 -15 44 0 4 -4 10 -10 13
-6 4 -12 16 -14 26 -2 11 -8 30 -15 41 -6 12 -8 24 -5 28 3 3 2 6 -4 6 -5 0
-10 6 -11 13 0 6 -12 55 -26 107 -40 150 -49 223 -49 400 0 113 5 197 17 256
2 12 7 37 10 55 3 19 10 49 15 67 5 18 10 36 11 40 3 25 14 58 21 67 4 6 8 13
8 17 6 39 15 68 21 68 3 0 7 6 7 13 0 8 19 54 43 103 24 49 42 90 42 91 -1 1
23 39 53 84 30 44 55 83 55 86 0 3 8 13 18 22 10 9 27 30 37 48 10 18 22 30
27 27 4 -3 8 -1 8 4 0 5 8 18 17 30 10 11 24 29 32 41 8 11 18 18 23 15 4 -3
8 -1 8 4 0 5 18 28 40 51 22 22 40 39 40 35 0 -3 16 12 35 33 19 21 35 34 35
29 0 -5 11 3 25 18 14 15 25 25 25 22 0 -4 8 2 18 12 33 31 62 52 62 45 0 -3
8 1 18 10 26 23 123 87 117 77 -3 -6 1 -7 9 -4 9 3 14 10 11 14 -3 5 5 12 17
16 13 3 35 15 51 26 15 11 27 16 27 13 0 -4 11 0 25 9 13 9 31 16 40 16 8 0
15 4 15 8 0 9 70 37 83 34 4 -1 7 2 7 8 0 6 3 9 8 8 4 -1 23 4 42 11 19 8 40
15 45 16 6 1 13 3 18 5 4 1 12 4 17 5 6 1 12 4 15 5 3 1 8 3 13 4 4 1 33 10
66 20 32 9 71 19 87 21 16 2 32 6 36 8 4 3 30 8 57 11 27 4 53 9 56 11 17 10
191 20 355 20 163 0 277 -7 345 -20 14 -3 41 -8 60 -11 42 -8 64 -12 90 -19
11 -3 29 -7 40 -10 46 -12 66 -16 75 -18 6 -2 15 -6 21 -9 6 -4 25 -10 44 -13
18 -3 45 -12 60 -20 15 -8 30 -11 34 -8 3 4 6 1 6 -5 0 -7 3 -11 8 -10 4 1 23
-4 42 -11 19 -8 37 -14 40 -15 3 -1 12 -6 20 -11 8 -5 21 -10 29 -12 8 -1 17
-7 21 -13 4 -7 9 -11 11 -9 9 5 49 -13 49 -22 0 -6 4 -8 8 -5 5 3 32 -10 60
-28 28 -19 53 -31 56 -28 3 3 6 0 6 -6 0 -7 4 -12 9 -12 18 0 140 -88 133 -95
-4 -5 -2 -5 5 -1 6 3 16 -2 22 -11 6 -10 11 -14 11 -9 0 6 6 3 13 -6 6 -8 44
-42 84 -76 39 -33 68 -64 65 -68 -4 -4 -1 -4 6 0 6 4 12 3 12 -3 0 -12 42 -53
47 -47 11 10 -273 296 -294 296 -3 0 -13 7 -22 15 -36 34 -81 66 -81 58 0 -4
-5 0 -11 10 -5 9 -17 17 -24 17 -8 0 -15 4 -15 8 0 4 -25 21 -55 37 -30 17
-55 33 -55 38 0 4 -9 7 -20 7 -11 0 -20 4 -20 8 0 8 -33 27 -55 31 -5 1 -17 9
-25 16 -8 7 -19 14 -23 14 -4 0 -27 8 -50 19 -41 19 -107 46 -117 48 -3 0 -18
6 -35 13 -37 16 -82 31 -114 37 -14 3 -29 8 -35 12 -6 3 -22 8 -36 10 -13 2
-30 8 -37 14 -7 6 -13 8 -13 5 0 -4 -18 -1 -95 19 -21 5 -46 9 -125 19 -25 3
-56 8 -69 10 -47 8 -289 24 -294 19z"/>
<path d="M3934 3293 c66 -76 74 -83 36 -30 -24 31 -46 57 -51 57 -5 0 2 -12
15 -27z"/>
<path d="M3208 804 c-2 -1 -16 -4 -33 -7 -57 -9 -187 -66 -230 -99 -30 -23
-135 -110 -165 -137 l-35 -31 55 29 c126 66 369 185 380 186 17 2 80 30 80 36
0 4 6 7 13 6 31 -1 50 4 43 11 -7 6 -102 12 -108 6z"/>
</g>
</svg>
